<svg width="132" height="122" viewBox="0 0 132 122" fill="none" xmlns="http://www.w3.org/2000/svg">
<g clip-path="url(#clip0_232_1609)">
<path d="M131.761 19.9351H29.793V122H131.761L132 121.763V20.1724L131.761 19.9351ZM99.5963 79.9176C100.189 79.9302 100.797 79.1992 101.153 79.9461C101.898 81.4968 98.5583 81.5759 97.5458 80.5252C96.183 79.1106 96.374 75.5058 98.3131 74.6735C100.497 73.7367 101.895 76.2591 101.567 78.1453L98.4055 78.6422C98.3704 79.2466 98.9913 79.9049 99.5931 79.9176H99.5963ZM94.2694 62.6599C95.4921 62.1346 97.2942 61.7674 98.3386 62.8087C98.5073 62.9764 98.8862 63.4923 98.8862 63.6885V68.5939L98.622 68.806C98.4214 68.8503 98.2144 68.8408 98.0106 68.8408C97.6859 68.8408 97.3356 68.8946 97.135 68.5939V63.8467C97.135 63.4859 96.0206 63.2707 96.0206 63.6885V68.5939L95.7563 68.806C95.5558 68.8503 95.3488 68.8408 95.145 68.8408C94.8203 68.8408 94.47 68.8946 94.2694 68.5939V62.6599ZM90.404 62.2232C94.5432 61.3782 94.2439 70.2997 90.0983 68.7838C87.8441 67.961 87.981 62.72 90.404 62.2232ZM86.217 59.8021C87.1659 59.2229 88.016 60.4034 87.3728 61.1883C86.51 62.2453 85.058 60.5078 86.217 59.8021ZM87.583 62.5808V68.5939L87.3187 68.806C87.1181 68.8503 86.9111 68.8408 86.7074 68.8408C86.3826 68.8408 86.0323 68.8946 85.8318 68.5939V62.5808L86.096 62.3687C86.2966 62.3244 86.5036 62.3339 86.7074 62.3339C87.0321 62.3339 87.3824 62.2801 87.583 62.5808ZM81.4537 62.3434H84.8765C85.2714 62.7422 83.4342 66.4703 83.4374 67.3248C83.4374 67.8723 84.1888 67.4071 84.4913 67.4198C85.109 67.4451 85.2554 68.48 84.7969 68.8313H81.2149C81.4187 67.1413 82.3516 65.5209 82.7974 63.8594C82.6828 63.3815 81.5238 63.8087 81.285 63.4638C81.1576 63.0935 81.1099 62.6061 81.4537 62.3466V62.3434ZM78.7187 60.0205C79.7025 58.7039 81.4219 60.9224 79.6261 61.4921C78.9161 61.7168 78.2602 60.6344 78.7187 60.0205ZM80.4285 67.9704C80.3107 69.1572 79.6548 68.7901 78.6677 68.8313V62.3434L80.1546 62.3371C80.282 62.3466 80.2725 62.451 80.3107 62.5365C80.5081 62.9637 80.5017 67.2584 80.4285 67.9704ZM70.5039 62.2232C74.2037 61.4668 74.4521 69.0053 70.9433 68.9579C67.8611 68.9167 67.7879 62.777 70.5039 62.2232ZM68.9469 76.0407C69.0265 76.5597 69.0233 80.3986 68.8768 80.6993C68.5712 81.3386 66.3615 81.2753 65.7661 81.1012C64.3492 80.6835 64.069 78.715 65.0528 77.6864C65.7438 76.9648 67.2721 76.8256 67.3517 76.7275C67.6287 76.3825 67.1256 75.8951 66.7658 75.8255C66.1036 75.6989 65.3076 76.5028 64.9 75.6293C64.3714 74.4963 66.8454 74.414 67.5682 74.5596C68.256 74.6988 68.8418 75.3508 68.9469 76.0375V76.0407ZM63.066 62.6599C66.8614 60.5205 69.3099 65.1569 67.1129 68.0274C66.3742 68.9927 65.9539 68.7078 64.8873 68.98L64.7472 71.2144C64.5752 71.4581 63.2825 71.4865 63.066 71.1258V62.6599ZM63.706 76.6578C63.7633 77.3351 63.8174 80.2467 63.6678 80.7468C63.4958 81.3291 62.2859 81.3386 61.9484 80.9366V76.1894C61.786 75.8192 60.6748 75.6261 60.6748 76.0312V80.9366C60.5634 81.2879 59.1401 81.3734 58.9554 80.7468C58.8408 80.3638 58.8344 75.8856 58.9268 75.4014C59.1306 74.3412 61.6841 74.3792 62.4897 74.702C63.4003 75.0659 63.6296 75.7495 63.706 76.6578ZM58.6943 64.8689C58.3314 63.8087 58.8376 62.4605 59.9966 62.2232C61.0951 61.9985 62.859 62.4289 61.6332 63.7043L60.9136 63.4511C60.3023 63.5619 60.2004 64.2486 60.5634 64.6759C60.6939 64.831 61.1588 64.9924 61.388 65.1981C62.1331 65.8722 62.4642 66.5463 62.1904 67.5717C61.6332 69.6731 57.5067 69.1224 58.7516 67.4736C59.2165 66.8596 59.5827 67.8692 60.2609 67.3913C61.1906 66.733 58.9491 65.6095 58.6943 64.8689ZM58.4555 74.9267C58.5574 76.1894 57.1596 75.6609 57.0769 76.1831L57.0928 80.8575C56.8731 81.3069 55.7077 81.3196 55.4212 80.9366V75.0818C55.9019 74.5343 58.3919 74.1418 58.4555 74.9235V74.9267ZM54.2399 93.2098L52.5587 93.3585V87.1871C53.0682 87.051 55.3607 86.3295 55.4403 87.1049C55.5772 88.4626 54.3227 87.9309 54.1762 88.5607L54.2431 93.2098H54.2399ZM54.3099 60.6028H57.7328C58.0575 60.7009 58.0066 61.5427 57.9493 61.8465L56.0612 62.0269V63.929L57.5035 63.9986C58.083 65.4449 57.2806 65.4513 56.0612 65.3532L56.1312 67.2615L56.3222 67.3881C57.599 67.3122 58.5288 67.3881 57.7328 68.8344H54.3099V60.6059V60.6028ZM52.8803 74.6039C54.1189 74.9298 54.8194 76.9775 54.4469 78.0693C54.3004 78.5029 51.9697 78.5409 51.4411 78.6453C51.6194 80.3132 52.8134 79.8574 53.9756 79.6074C55.0582 81.3228 52.6065 81.4019 51.438 81.1012C48.7379 80.405 49.0054 73.5848 52.8803 74.6039ZM51.387 66.9894C52.2785 67.8755 51.2756 69.2142 50.1739 68.749C48.6424 68.1002 50.1166 65.7234 51.387 66.9894ZM45.4647 60.5933L45.6558 60.4667C46.2448 60.4604 47.3051 60.185 47.4611 61.0015C47.2828 62.1535 47.7731 67.8787 47.321 68.4483C47.0185 68.8281 45.4424 68.8693 45.401 68.1129L45.4647 60.5901V60.5933ZM45.6908 84.5477C45.2609 85.1142 44.3599 87.7916 43.8504 87.953C43.6594 88.0132 43.4588 88.0037 43.2677 87.9625C42.7201 87.779 43.4206 85.6554 43.5989 85.168C43.7358 84.7914 43.965 84.1837 44.3949 84.0571C44.7547 83.9527 45.7385 84.0698 45.694 84.5509L45.6908 84.5477ZM44.535 74.914C44.7133 75.028 45.2355 75.7369 45.2355 75.873V81.0158C44.621 81.2278 44.0988 81.2278 43.4843 81.0158V76.1894C43.4843 75.9426 42.3699 75.585 42.3699 76.0312V80.7784C42.3699 81.1898 40.867 81.405 40.6186 80.9366V75.0818C41.6057 74.3507 43.5225 74.2684 44.535 74.914ZM37.6384 63.7359C37.8485 63.2707 39.4533 60.5711 39.7717 60.4762C40.0805 60.3812 41.7267 60.3654 41.7299 60.6851L40.141 63.2137C40.8288 63.6125 41.4115 63.5872 41.9782 64.2423C44.102 66.6982 40.8957 70.2744 38.3134 68.3597C36.7564 67.2046 36.9284 65.331 37.6416 63.7391L37.6384 63.7359ZM39.5138 80.3132C39.4023 81.443 38.4344 81.3955 37.5938 80.9366V73.1829C37.9441 72.6575 39.2845 72.6322 39.4788 73.2082C39.3546 75.4742 39.7335 78.0883 39.5138 80.3132ZM39.5011 108.233L39.431 110.458L38.0682 110.607V104.514C38.1606 104.211 39.4374 103.983 39.7558 103.98C42.8156 103.954 42.5864 108.632 39.4979 108.233H39.5011ZM42.0515 92.9629C41.5229 93.5674 40.3512 93.5959 39.5838 93.5167C36.7883 93.2224 36.61 88.1208 38.826 87.0669C39.4246 86.782 40.036 87.0416 40.4626 86.6365V84.2629C40.5709 83.9179 41.8381 83.8894 42.0546 84.2629V92.9661L42.0515 92.9629ZM45.6876 110.186C45.3979 111.024 42.3062 111.18 42.0801 109.22C41.9018 107.673 43.5384 107.518 44.4363 106.888C43.8568 105.923 42.6787 107.243 42.4272 106.097L42.6055 105.704C42.7901 105.54 43.1977 105.461 43.4492 105.429C44.3057 105.315 45.5189 105.562 45.7067 106.581C45.7768 106.958 45.7799 109.923 45.6876 110.189V110.186ZM46.6715 74.4172C46.7511 74.0754 46.5027 73.4107 46.8211 73.1797L48.1011 72.8632C48.4673 73.1291 48.117 74.3317 48.2762 74.5121C48.4131 74.6672 49.1773 74.4108 49.2282 75.24C49.2887 76.1894 48.7666 75.7843 48.4131 76.028C48.1966 76.1768 48.1775 78.9365 48.2921 79.3226C48.4609 79.8891 49.8396 80.0378 48.9894 81.0316C45.6016 81.8956 47.0122 78.0883 46.6683 76.3477C46.576 75.873 46.0506 76.047 46.0124 75.4014C45.9614 74.5501 46.6205 74.6324 46.6715 74.4203V74.4172ZM47.9483 106.499L47.9196 110.347C47.2541 110.85 46.5951 110.863 46.5091 109.895C46.439 109.107 46.3913 106.831 46.5441 106.132C46.7288 105.28 48.7347 105.185 48.8844 105.641C48.999 106.299 48.55 106.537 47.9483 106.499ZM51.1164 109.391C51.2692 109.635 51.7086 109.499 51.6067 110.205C51.4889 111.024 50.4891 110.79 50.0211 110.363C49.1677 109.584 49.6836 108.037 49.5435 107.04C49.4734 106.543 49.0659 106.268 49.2187 105.654C49.2473 105.537 49.4989 105.562 49.5307 105.435C49.6071 105.128 49.4384 104.856 49.6836 104.505C49.9192 104.163 50.5783 104.081 50.9699 104.122C50.9858 104.796 50.7916 105.543 51.6163 105.632C51.82 106.35 51.2055 106.486 51.0527 106.815C50.8807 107.182 50.9062 109.05 51.1227 109.395L51.1164 109.391ZM50.158 93.292C49.8173 91.5577 49.6613 91.5166 47.9292 91.8457L47.4675 93.2857L46.0283 93.3585L48.1934 85.2724C48.8239 85.0509 49.5339 84.9654 49.9192 85.6142L51.9187 93.3585L50.1548 93.2889L50.158 93.292ZM55.7014 108.353C55.1951 108.79 53.7559 108.192 53.3866 108.942C53.5967 110.097 55.7109 108.91 55.5899 110.047C55.4689 111.183 52.3963 111.053 52.0907 109.094C51.9283 108.037 51.9697 106.353 52.9567 105.701C55.1569 104.249 56.4655 107.698 55.7045 108.353H55.7014ZM56.3827 88.4056C56.3318 88.1967 55.7268 88.2537 55.7268 87.5827C55.7268 86.9118 56.3382 86.9656 56.3827 86.7599C56.4496 86.4624 56.2904 86.1206 56.4592 85.7598C56.6088 85.437 57.8697 84.9749 58.0575 85.2788L58.1562 86.8485C59.242 86.9593 59.2961 88.3549 58.1244 88.3834L58.1594 91.8299L58.9045 92.2761L58.7867 93.2952C58.4587 93.7161 57.599 93.4946 57.1915 93.2667C55.7141 92.4375 56.7043 89.7 56.3859 88.4056H56.3827ZM58.1499 109.477L59.1751 109.645L59.086 110.528C55.816 111.98 55.4466 105.388 58.2104 105.382C58.914 105.382 59.726 105.897 59.0127 106.508C58.7708 106.717 58.2135 106.265 57.9143 107.151C57.65 107.939 57.841 108.743 58.1499 109.477ZM61.7542 86.7409C62.7603 86.627 63.8843 87.6397 64.1422 88.5702C64.8713 91.2159 63.4226 90.7634 61.3148 90.8267C61.1874 91.5862 61.3625 92.023 62.1872 92.1052C62.8176 92.1685 63.5022 91.6685 63.8333 92.2002C64.7567 93.6876 61.9166 93.6592 61.0696 93.3648C58.6625 92.5293 58.8344 87.0732 61.7574 86.7409H61.7542ZM60.4774 103.35C61.0378 103.271 61.5281 103.97 61.1651 104.524C60.2927 105.856 58.965 103.565 60.4774 103.35ZM61.0537 110.585L59.882 110.607V105.543L61.2447 105.692L61.2925 110.347L61.0537 110.585ZM63.5436 110.765C63.7346 112.059 63.3876 113.43 61.9771 112.243C62.1076 110.433 61.7128 108.157 61.942 106.407C62.0949 105.252 63.9512 105.195 64.8045 105.635C66.6162 106.572 66.1004 111.104 63.5436 110.765ZM69.8352 110.293C67.4568 112.104 64.5593 108.787 67.4377 107.436C67.772 107.28 68.6762 107.347 68.4788 106.73C68.2655 106.065 66.8518 107.167 66.6448 106.189C66.4474 105.261 68.8354 105.109 69.5455 105.907C70.2237 106.67 69.8575 109.249 69.8384 110.29L69.8352 110.293ZM70.5485 110.607C70.3765 109.901 72.1277 106.822 71.6629 106.492L70.9783 106.629C70.4115 106.502 70.472 105.543 70.7873 105.543H73.3345L73.551 105.91L72.3028 109.499L73.4268 109.569L73.5765 110.607H70.5516H70.5485ZM73.3345 81.174H70.1505C70.0963 81.174 69.9594 80.9968 69.9308 80.9113C69.7238 80.272 71.2521 77.0439 71.4973 76.1863C71.2235 75.7084 70.23 76.161 69.9817 75.8033C69.8129 75.5596 69.832 74.7178 70.1505 74.5279H73.3345C73.6147 74.6134 73.5701 74.9805 73.5414 75.1989C73.3918 76.3414 72.1245 78.3795 72.1309 79.5093C72.1341 80.0663 73.1721 79.4524 73.586 79.9714C73.9331 80.2372 73.6274 81.174 73.3313 81.174H73.3345ZM74.2897 63.2929C74.831 62.0396 76.4548 61.8244 77.4769 62.6567C77.7061 64.3974 76.6268 63.3593 76.1619 63.5619C74.9456 64.0936 77.219 65.3405 77.582 66.0273C78.6868 68.1192 76.0727 69.6573 74.2451 68.6319C73.898 68.1698 74.2833 67.7331 74.3756 67.2489L75.5283 67.54L75.9677 66.9989C76.06 66.0209 73.3599 65.4354 74.2897 63.2897V63.2929ZM74.9965 73.6703C74.1751 73.3981 74.261 72.2429 74.9583 72.0277C76.6777 71.4992 76.6459 74.2178 74.9965 73.6703ZM75.4996 110.515C75.35 110.724 74.3693 110.676 74.2069 110.369V105.543L75.5696 105.692L75.4964 110.515H75.4996ZM75.3977 104.584C74.4139 105.695 73.551 103.467 74.7927 103.362C75.3722 103.315 75.8594 104.059 75.3977 104.584ZM74.5285 80.9366V74.9235C74.6463 74.5026 75.6079 74.3982 75.9645 74.607C76.0887 74.7083 76.1587 74.8476 76.2096 74.9963C76.3529 75.4299 76.3497 80.56 76.2033 80.8607C75.9899 81.2974 74.8469 81.3354 74.5317 80.9398L74.5285 80.9366ZM79.7184 109.917C79.6197 110.078 78.9606 110.575 78.7823 110.638C75.7161 111.759 75.229 104.882 78.5467 105.416C80.317 105.701 80.4635 108.673 79.7184 109.914V109.917ZM77.9417 75.2273C78.1264 74.9868 78.5212 74.6767 78.8205 74.607C82.7974 73.6639 82.7687 80.386 80.4253 81.1044C77.063 82.1361 76.3179 77.3509 77.9386 75.2273H77.9417ZM84.5359 110.347L84.2971 110.585L83.1253 110.607V106.888C83.1253 106.853 82.9534 106.502 82.8642 106.483C82.6732 106.429 82.1701 106.559 82.1701 106.73V110.369C81.8517 110.736 81.0557 110.736 80.7373 110.369V106.097C80.7373 105.334 83.8258 104.866 84.4372 106.375C84.5964 106.765 84.66 109.967 84.5359 110.347ZM86.6437 110.515C86.494 110.724 85.5134 110.676 85.351 110.369V105.543L86.7137 105.692L86.6405 110.515H86.6437ZM85.905 104.907C85.1122 104.891 85.0994 103.543 85.7744 103.34C86.787 103.036 87.2518 104.932 85.905 104.907ZM87.5511 80.7468C87.3792 81.3291 86.1693 81.3386 85.8318 80.9366V76.1103C85.628 75.8983 84.5581 75.7464 84.5581 75.9521V80.9366C84.2143 81.3101 83.3068 81.3101 82.9661 80.9366V75.0818C83.9818 74.2114 86.6628 74.2336 87.3314 75.49C87.6307 76.0502 87.7326 80.1328 87.5511 80.7468ZM89.6685 77.1547C90.3467 76.8287 91.5375 76.9965 91.2159 76.1356C90.369 75.4647 89.7099 76.2686 88.8757 75.9299V74.8602C91.1109 74.1102 92.7952 74.3475 92.999 76.9711C93.0467 77.5883 93.0881 80.4999 92.792 80.8132C92.3845 81.2436 90.6428 81.2468 90.0442 81.174C87.981 80.9272 87.7517 78.0725 89.6653 77.1484L89.6685 77.1547ZM94.1102 110.369C93.8523 110.708 93.2219 110.721 92.913 110.448L91.0854 106.967V110.369C90.7988 110.724 90.1206 110.74 89.8118 110.369V104.356C89.92 104.008 90.8912 104.04 91.1809 104.261C91.3274 104.375 92.2826 106.534 92.4768 106.936C92.5819 107.151 92.3749 107.369 92.8366 107.284V104.356C93.1455 103.986 93.8237 104.002 94.1102 104.356V110.369ZM93.9542 80.617L94.0274 71.9961C94.107 71.86 94.2248 71.7587 94.3777 71.7144C96.1544 71.1891 95.7054 72.417 95.6927 73.338C95.664 75.2843 95.6545 77.2591 95.6927 79.2055C95.7086 79.9872 96.3072 81.0601 95.1482 81.1867C94.6356 81.2405 94.0529 81.212 93.9542 80.6202V80.617ZM98.3832 110.186C98.0743 111.078 94.3617 111.236 94.782 108.67C95.0304 107.141 97.135 107.366 97.1318 106.888C96.6638 106.005 95.5016 107.034 95.1386 106.334C94.8107 105.708 95.7054 105.483 96.1448 105.426C97.186 105.293 98.1698 105.651 98.3736 106.768C98.4564 107.214 98.4978 109.86 98.3864 110.186H98.3832ZM101.831 110.607H99.0454C99.1378 109.331 99.7778 108.062 100.281 106.885C100.023 106.322 99.5167 106.714 99.0614 106.473L99.0423 105.543H101.908L100.79 109.417L101.997 109.645C102.166 109.86 102.064 110.607 101.828 110.607H101.831ZM104.105 110.17C104.086 110.3 104.019 110.578 103.876 110.613H102.812C102.325 110.502 102.618 106.473 102.57 105.803L102.809 105.565H103.962C104.232 106.141 103.968 106.629 103.971 107.198C103.974 108.005 104.194 109.546 104.105 110.17ZM103.14 103.35C103.761 103.182 104.398 103.904 103.99 104.524C103.159 105.787 101.765 103.723 103.14 103.35ZM104.547 65.8374L101.593 66.3026C101.65 67.828 102.828 67.635 103.984 67.3185L104.436 68.2584C104.34 68.7585 102.908 68.9832 102.487 68.9737C98.5456 68.8851 99.1314 61.3687 102.914 62.22C103.105 62.2643 103.624 62.5713 103.771 62.7137C104.503 63.4226 104.802 64.8563 104.551 65.8374H104.547ZM106.092 110.645C104.2 110.028 104.229 105.723 106.33 105.416C109.591 104.942 109.158 111.645 106.092 110.645ZM112.896 110.607H111.622V106.888C111.622 106.67 110.922 106.379 110.667 106.492V110.369C110.349 110.736 109.553 110.736 109.234 110.369V105.939C109.82 105.043 112.896 105.29 112.896 106.413V110.607ZM117.169 110.186C116.85 111.11 113.052 111.173 113.568 108.667C113.877 107.179 115.669 107.363 115.758 107.046C115.746 105.853 114.313 107.081 113.921 106.334C113.593 105.708 114.488 105.483 114.927 105.426C115.883 105.302 116.987 105.673 117.185 106.739C117.252 107.103 117.255 109.929 117.166 110.189L117.169 110.186ZM119.423 110.369C119.105 110.736 118.309 110.736 117.99 110.369V103.328C118.318 103.112 119.423 103.125 119.423 103.565V110.369ZM120.417 103.527C120.942 103.002 121.907 103.707 121.572 104.432C121.037 105.587 119.681 104.268 120.417 103.527ZM121.652 110.369C121.547 110.702 120.219 110.822 120.219 110.211V105.78C120.538 105.413 121.334 105.413 121.652 105.78V110.369Z" fill="#BF3436"/>
<path d="M0.977539 20.1724V121.763L1.21634 122H21.9921V19.9351H1.21634L0.977539 20.1724ZM11.437 93.6971C12.0356 93.5231 12.682 94.2162 12.2617 94.846C11.4466 96.0676 10.1762 94.0674 11.437 93.6971ZM17.4389 66.7615C18.5661 65.8753 19.0087 68.6699 17.8592 69.7111C16.6716 70.784 13.4653 70.5023 12.9877 68.6794C12.4464 66.6064 15.901 65.7962 16.2258 66.8881C16.3277 67.2267 16.0252 69.7934 17.1747 68.6351C17.7032 68.1034 16.8976 67.1887 17.4389 66.7615ZM11.6408 52.1338C11.8096 51.2476 14.8853 51.5673 15.4648 50.7919C14.6688 50.6811 12.6056 50.564 11.9656 50.2317C11.4912 49.9849 11.6599 49.3234 11.644 48.8898C11.8828 48.6525 17.423 50.1494 18.2254 50.3393C18.6616 50.4659 18.5183 51.5071 18.2922 51.7002L11.644 53.1623C11.6759 52.8364 11.5835 52.4408 11.644 52.1306L11.6408 52.1338ZM14.1658 33.6766C13.9683 33.9836 13.0736 33.7811 13.0736 33.4646V30.8536C13.3124 30.4833 16.3946 31.8537 16.9868 31.9581L17.3466 31.7113C16.9836 30.6954 17.6714 30.3346 18.4833 30.9327V33.6228C18.4833 33.7178 18.254 33.8444 18.1171 33.838C17.1938 33.7811 15.4553 32.6417 14.4237 32.5911C13.9015 32.5658 14.3504 33.3791 14.1626 33.6766H14.1658ZM18.2509 29.5877C16.7989 29.42 14.8599 29.8124 13.4748 29.5877C12.8699 29.4896 12.9431 28.5085 13.3156 28.1635H18.2509C18.652 28.3439 18.5438 29.5877 18.2509 29.5877ZM14.6593 34.5628C16.8085 34.0944 16.0029 35.4331 16.436 36.8509L17.1396 36.7117C17.7669 36.0977 16.7353 34.9426 17.6204 34.8001C18.9004 34.5944 18.7062 37.025 17.9961 37.7181C17.0505 38.6454 14.9713 38.7277 13.8887 38.0346C12.2649 36.9997 12.8953 34.9426 14.6593 34.5596V34.5628ZM18.4801 91.2159C18.1044 93.2572 13.4016 93.311 12.9495 91.026C12.7202 89.8741 13.8951 88.9404 14.9458 88.8107C15.3247 88.7632 15.8437 88.6524 16.1144 88.9911C16.5347 89.5196 15.866 91.083 16.6588 91.1526C18.0057 91.2697 16.6079 88.7126 17.907 88.9531C18.6202 89.086 18.582 90.6653 18.4801 91.2128V91.2159ZM17.9325 95.2574H13.4748C13.0386 95.2574 12.8571 93.8902 13.4748 93.675H18.0917C18.5756 93.675 18.7221 95.2574 17.9325 95.2574ZM14.2708 81.0158H18.3305C18.4546 81.2563 18.6425 82.4399 18.2509 82.4399H13.4748C12.7425 81.5886 12.6661 79.465 13.7264 78.8922C14.2645 78.601 17.4771 78.5029 18.0598 78.6738C18.7189 78.8669 18.5374 80.0663 18.2509 80.0663C17.1364 80.1961 15.6495 79.8891 14.5892 80.0663C14.3695 80.1043 14.0607 80.4145 14.0543 80.6423L14.2708 81.0158ZM13.9524 83.8641H18.2509C19.4608 85.9465 15.7801 85.2408 14.6211 85.1553L14.0352 85.687L14.274 86.0795H17.9356C18.5565 86.0795 18.7921 87.4182 18.063 87.6302C17.7064 87.7346 13.8091 87.7093 13.5544 87.5859C12.6438 86.4466 12.6406 84.649 13.9556 83.8641H13.9524ZM16.3022 77.7307C15.0573 77.3035 15.1624 76.2622 14.5892 75.3223C13.6913 75.7812 14.7612 77.1167 13.9206 77.3509C13.0959 77.582 12.8221 76.066 12.9526 75.4331C13.0577 74.9267 13.6181 74.2019 14.1435 74.0848C14.6752 73.9678 17.7287 73.9804 18.1012 74.1988C19.0628 74.7716 18.6107 78.5219 16.3022 77.7275V77.7307ZM16.2608 46.9941C16.8722 47.0859 17.3211 46.9245 17.3721 46.2662C17.4007 45.8864 16.904 44.6205 17.907 44.8072C18.6425 44.9433 18.5852 46.6492 18.4483 47.1935C18.0025 48.9436 13.8728 49.124 13.0927 47.2188C12.2331 45.1206 15.4776 44.0129 16.0889 44.8705C16.4328 45.3516 16.1876 46.4055 16.2608 46.9973V46.9941ZM13.6499 39.8923C14.274 39.5189 17.3848 39.3923 18.0566 39.5885C18.5661 39.7372 18.6425 40.5379 18.3273 40.9082C18.0089 41.2817 14.8026 40.6329 14.2294 41.1772C14.0129 41.3829 13.997 41.9273 14.2676 41.9273C15.2101 41.9273 17.1396 41.7627 17.9293 41.9273C18.6839 42.0824 18.824 43.3799 17.7764 43.516C17.2479 43.5856 14.0511 43.5951 13.6595 43.478C12.7712 43.2122 12.6438 40.4841 13.6468 39.886L13.6499 39.8923ZM13.3156 56.6468H18.2509C18.6202 56.9633 18.6202 57.7545 18.2509 58.0709H13.3156C12.9144 57.8905 13.0227 56.6468 13.3156 56.6468ZM18.2509 71.3631C18.7285 71.5783 18.4515 72.7873 18.0917 72.7873H11.246C10.8448 72.6069 10.9531 71.3631 11.246 71.3631H18.2509ZM14.8853 96.9885C15.226 96.7417 15.4457 96.3429 15.8947 96.2416C18.0885 95.7416 18.7094 97.4632 18.4928 99.2957C18.4228 99.8875 18.2349 100.248 17.6204 100.327C17.0473 100.403 12.1885 100.403 11.9529 100.248C10.5997 98.0424 12.4305 95.0137 14.8822 96.9885H14.8853ZM18.461 110.186C18.3368 110.556 17.7924 110.585 17.4612 110.616C16.6525 110.689 12.8635 110.73 12.2713 110.537C12.1216 110.49 11.9815 110.417 11.8796 110.293C11.6058 109.885 11.8796 109.024 12.3572 109.024H17.2129L17.3625 107.828L18.2254 107.781C18.5947 107.901 18.5756 109.844 18.461 110.186ZM16.939 107.41C15.4394 107.549 15.0764 105.92 14.5892 104.913C13.6913 105.372 14.7612 106.708 13.9206 106.942C13.3156 107.113 13.045 106.388 12.9558 105.901C12.7775 104.926 13.2742 103.866 14.309 103.682C14.8981 103.578 17.7 103.552 18.1012 103.793C18.9386 104.29 18.7794 107.239 16.939 107.41ZM17.458 23.4132C18.9513 23.5872 18.7699 26.1761 17.9611 26.847C17.6873 27.0749 17.1778 27.2299 16.818 27.2299C14.9299 27.2331 14.9172 24.869 14.7484 24.8405C13.5098 24.6348 15.0445 27.3692 13.3857 26.828C11.7268 23.5303 14.9076 23.1157 17.458 23.4132ZM11.09 28.325C11.8733 27.5306 12.8539 28.787 12.2394 29.3915C11.5994 30.0213 10.3513 29.0718 11.09 28.325ZM11.09 56.8082C11.8733 56.0138 12.8539 57.2702 12.2394 57.8747C11.5994 58.5045 10.3513 57.5551 11.09 56.8082ZM10.9276 59.1786H17.9325C18.1553 59.2419 18.4387 59.8053 18.4801 60.0584C19.1265 64.0588 13.1692 64.1505 12.8953 60.6249L10.8385 60.5363C10.5837 60.3591 10.5869 59.378 10.9276 59.1818V59.1786Z" fill="#BF3436"/>
<path d="M27.0197 13.6752C23.6096 10.1369 21.8425 7.06392 16.1972 7.76967C15.4553 7.86145 14.2868 8.43428 13.7901 7.43737C12.9845 5.82015 16.3054 4.97515 17.2033 4.33902C18.1936 3.6396 20.174 0.54759 18.3719 0.0253971C17.6714 -0.17715 16.1653 0.965344 15.3343 1.21853C13.3475 1.82301 10.5551 1.16156 8.96945 2.32937C7.09088 3.71556 9.6572 5.36442 8.78478 6.57654C8.34538 7.18735 7.74042 6.82972 7.25963 6.48476C6.04334 5.60811 4.84296 3.08893 3.39741 2.88005C1.71943 2.63636 -0.124114 4.88654 0.372593 6.53223C0.445826 6.77592 1.15586 7.40888 1.35646 7.76967C2.11107 9.12737 1.58252 10.2477 1.78312 11.6181C2.10152 13.8018 4.03422 14.2765 1.85635 16.6153C1.45516 17.0457 0.111504 17.8148 0.0573753 17.9097C-0.0636175 18.1217 0.0573753 18.5648 0.0223511 18.8275C2.42629 19.2642 3.56298 16.6311 5.19639 15.5045C6.34263 14.7133 11.5326 13.5423 13.1978 13.172C14.3982 12.9061 15.8629 12.4473 16.99 12.9663C18.5088 13.6625 17.8242 15.4981 16.8404 16.3969C16.2991 16.8938 14.1212 17.6122 14.8089 18.4414C15.9265 19.7896 18.6202 16.0171 19.8333 16.1311C21.0687 16.245 19.9671 17.6407 19.9161 17.9667C19.7314 19.2104 21.9921 18.9889 22.5748 18.4572C23.4345 17.6755 22.5398 16.2862 22.3455 15.3842C22.2405 14.8936 22.3646 14.3968 22.2627 13.8841C22.0813 12.9884 20.5561 11.6086 21.4986 10.8205C22.1131 10.3078 22.6607 10.7161 23.2434 11.0104L27.4845 14.5518L27.717 14.2385C27.3922 14.2069 27.2203 13.8809 27.0197 13.672V13.6752Z" fill="#BF3436"/>
<path d="M30.745 16.2955C31.0698 15.6277 29.3154 15.2036 29.1562 15.3492C28.9906 15.8872 30.6431 16.3999 30.745 16.2955Z" fill="#BF3436"/>
<path d="M39.6155 67.2204C40.7235 67.5495 41.0228 65.8373 40.421 65.2297C39.3257 64.122 38.5743 66.9102 39.6155 67.2204Z" fill="#BF3436"/>
<path d="M65.2151 63.4448L64.8171 63.6885V67.4863L65.1483 67.6603C66.4283 67.6698 66.39 63.4575 65.2151 63.448V63.4448Z" fill="#BF3436"/>
<path d="M40.0615 88.0196C39.0139 87.9215 39.1158 90.4597 39.1731 91.0736C39.2496 91.8743 39.5998 92.4282 40.4563 92.0927V88.3741C40.4563 88.3393 40.1602 88.0576 40.0615 88.0196Z" fill="#BF3436"/>
<path d="M48.2698 90.2537C48.5563 90.7443 49.1199 90.4341 49.5338 90.3518C49.0562 89.6556 49.451 88.7188 48.8174 88.1428L48.2698 90.2569V90.2537Z" fill="#BF3436"/>
<path d="M70.9686 67.5528C71.9048 67.711 71.8665 64.2171 71.303 63.6537C71.2075 63.5588 71.0005 63.4733 70.8636 63.5303C70.6502 63.7107 70.4497 63.8753 70.3923 64.1696C70.2777 64.7646 70.1981 67.4262 70.9686 67.5559V67.5528Z" fill="#BF3436"/>
<path d="M90.9866 67.5591C91.8813 67.3692 91.8017 63.2613 90.8624 63.4606C89.9677 63.6505 90.0473 67.7584 90.9866 67.5591Z" fill="#BF3436"/>
<path d="M79.1802 75.9869C78.6867 76.5375 78.5593 79.4587 79.5368 79.8637C80.3137 79.9239 80.2914 77.8035 80.2532 77.2971C80.2182 76.8698 79.8775 75.2115 79.1802 75.9837V75.9869Z" fill="#BF3436"/>
<path d="M91.2285 79.8924L91.2445 77.8511C89.6811 77.8954 89.4296 80.3386 91.2285 79.8924Z" fill="#BF3436"/>
<path d="M60.9963 89.719L62.5692 89.5418C62.5915 87.4498 61.0823 87.9246 60.9963 89.719Z" fill="#BF3436"/>
<path d="M99.1537 75.8191C98.5456 75.8729 98.0457 77.2179 98.5106 77.354C100.536 77.9458 99.7842 75.7653 99.1537 75.8191Z" fill="#BF3436"/>
<path d="M51.2852 77.3763L52.6957 77.3573C53.0873 75.297 51.3425 75.335 51.2852 77.3763Z" fill="#BF3436"/>
<path d="M102.529 63.4733C101.981 63.1631 101.411 64.3531 101.44 64.8151L101.685 65.1759L102.85 65.0177C103.118 64.7392 102.688 63.5619 102.529 63.4733Z" fill="#BF3436"/>
<path d="M67.3706 79.8038L67.3643 77.8542C65.6576 77.8827 65.6449 80.614 67.3706 79.8038Z" fill="#BF3436"/>
<path d="M63.5435 106.334V109.657C64.9158 109.505 64.7884 106.698 63.5435 106.334Z" fill="#BF3436"/>
<path d="M39.5042 107.125L40.3798 106.812L40.4243 105.42L39.5042 105.068V107.125Z" fill="#BF3436"/>
<path d="M78.1295 106.502C77.3908 106.622 77.5309 110.148 78.5052 109.499C78.6962 108.989 78.9509 106.369 78.1295 106.502Z" fill="#BF3436"/>
<path d="M106.369 106.492C106.146 106.635 106.111 109.309 106.388 109.477L106.986 109.483C107.308 109.005 107.286 105.897 106.369 106.496V106.492Z" fill="#BF3436"/>
<path d="M115.526 109.781C116.156 109.721 115.571 108.591 115.921 108.233C114.692 107.686 114.587 109.869 115.526 109.781Z" fill="#BF3436"/>
<path d="M96.7624 108.097C96.0047 108.16 95.9919 109.502 96.4345 109.645L97.1095 109.398C97.1509 109.066 97.291 108.053 96.7624 108.097Z" fill="#BF3436"/>
<path d="M44.4363 108.233C43.3633 108.037 43.0353 109.464 44.0415 109.781C44.6242 109.47 44.414 108.79 44.4363 108.233Z" fill="#BF3436"/>
<path d="M67.8801 108.274C67.5171 108.654 67.5489 109.705 68.2399 109.781C68.9244 109.727 68.7652 107.347 67.8801 108.274Z" fill="#BF3436"/>
<path d="M53.6698 106.565C53.2591 106.841 53.3419 107.312 53.3546 107.758C54.2462 107.72 54.8575 107.41 54.1538 106.565H53.6698Z" fill="#BF3436"/>
<path d="M17.1777 97.8272C16.6269 97.2829 15.0476 97.7101 15.5316 98.7482C16.2799 99.2514 18.1616 98.802 17.1777 97.8272Z" fill="#BF3436"/>
<path d="M12.8603 98.8748L14.3313 98.8811C14.9299 97.4158 12.2298 97.5076 12.6119 98.6438L12.8635 98.8748H12.8603Z" fill="#BF3436"/>
<path d="M17.0186 61.4478C17.3593 61.3022 17.493 60.7041 17.1332 60.6028H14.2676L14.0288 60.9952C14.188 61.7263 16.4646 61.682 17.0154 61.4478H17.0186Z" fill="#BF3436"/>
<path d="M17.5122 25.3691L17.2703 24.8659L15.9425 24.8406C15.7578 25.8691 17.0092 26.1761 17.5122 25.3691Z" fill="#BF3436"/>
<path d="M15.1527 35.987C14.8343 35.7686 14.0606 36.0059 14.0988 36.4712L14.2261 36.8288C15.1654 37.2972 15.8181 36.987 15.1527 35.987Z" fill="#BF3436"/>
<path d="M15.9391 75.3191C15.7672 76.3382 16.4804 76.6103 17.3305 76.2274L17.5025 75.7368L17.2127 75.3982L15.9391 75.3191Z" fill="#BF3436"/>
<path d="M14.0988 46.5986L14.2261 46.9562C15.1654 47.4246 15.8181 47.1145 15.1527 46.1144C14.8343 45.896 14.0606 46.1334 14.0988 46.5986Z" fill="#BF3436"/>
<path d="M15.9391 104.91C15.6239 105.793 16.7574 106.372 17.3306 105.818L17.4993 105.328L17.2096 104.989L15.936 104.91H15.9391Z" fill="#BF3436"/>
<path d="M14.2358 91.1021C14.3823 91.254 15.0764 91.5546 15.3089 91.3869C15.9584 89.5545 13.373 90.2096 14.2358 91.1021Z" fill="#BF3436"/>
<path d="M14.1754 68.1162C13.9907 68.2681 14.118 68.4928 14.2422 68.6257C15.6878 70.1954 15.9616 66.7268 14.1754 68.1162Z" fill="#BF3436"/>
</g>
<defs>
<clipPath id="clip0_232_1609">
<rect width="132" height="122" fill="white"/>
</clipPath>
</defs>
</svg>
