<svg width="30" height="30" viewBox="0 0 30 30" fill="none" xmlns="http://www.w3.org/2000/svg">
<path d="M29.512 0.488082C28.8612 -0.162694 27.8061 -0.162694 27.1553 0.488082L15 12.6434L2.84472 0.488082C2.19395 -0.162694 1.13884 -0.162694 0.488083 0.488082C-0.162694 1.13884 -0.162694 2.19395 0.488083 2.84471L12.6434 15L0.488116 27.1552C-0.162661 27.8061 -0.162661 28.8611 0.488116 29.512C1.13888 30.1627 2.19399 30.1627 2.84475 29.512L15 17.3566L27.1553 29.512C27.8061 30.1627 28.8612 30.1627 29.512 29.512C30.1627 28.8611 30.1627 27.8061 29.512 27.1553L17.3566 15L29.512 2.84471C30.1627 2.19395 30.1627 1.13884 29.512 0.488082Z" fill="#AAAAAA"/>
</svg>
