<svg width="27" height="18" viewBox="0 0 27 18" fill="none" xmlns="http://www.w3.org/2000/svg">
<path d="M1.30645 0.5C0.584925 0.5 0 1.10089 0 1.84211C0 2.58332 0.584925 3.18421 1.30645 3.18421V0.5ZM25.6935 3.18421C26.4151 3.18421 27 2.58332 27 1.84211C27 1.10089 26.4151 0.5 25.6935 0.5V3.18421ZM1.30645 7.65789C0.584925 7.65789 0 8.2588 0 9C0 9.7412 0.584925 10.3421 1.30645 10.3421V7.65789ZM22.2097 10.3421C22.9312 10.3421 23.5161 9.7412 23.5161 9C23.5161 8.2588 22.9312 7.65789 22.2097 7.65789V10.3421ZM1.30645 14.8158C0.584925 14.8158 0 15.4167 0 16.1579C0 16.8991 0.584925 17.5 1.30645 17.5V14.8158ZM13.5 17.5C14.2215 17.5 14.8065 16.8991 14.8065 16.1579C14.8065 15.4167 14.2215 14.8158 13.5 14.8158V17.5ZM1.30645 3.18421H25.6935V0.5H1.30645V3.18421ZM1.30645 10.3421H22.2097V7.65789H1.30645V10.3421ZM1.30645 17.5H13.5V14.8158H1.30645V17.5Z" fill="#AAAAAA"/>
</svg>
